<svg width="152" height="72" viewBox="0 0 152 72" fill="none" xmlns="http://www.w3.org/2000/svg">
<path d="M4.24247 20.3733C5.11348 20.6406 5.19925 21.542 5.35314 22.2238C6.32004 26.3049 7.41771 30.3571 8.1231 34.4961C9.60129 43.0149 10.8616 51.5819 12.2478 60.0699C12.3581 60.7614 12.512 61.4432 12.7578 62.1557C13.4744 58.929 13.6536 55.6679 14.4185 52.4816C14.6412 52.4834 14.8203 52.4949 15.043 52.4967C15.139 53.0379 15.3269 53.6099 15.2922 54.1801C14.961 58.6509 14.5911 63.1815 14.1728 67.6716C14.0202 69.3417 13.1771 69.8352 11.9826 68.9748C11.0735 68.3069 10.2372 67.4694 9.48811 66.6126C7.8837 64.7181 6.31812 62.7638 4.75253 60.8095C3.73786 59.5002 3.71879 59.2999 3.6637 57.3178C6.59542 58.6628 7.84906 62.0157 10.3102 64.0273C10.2918 63.3666 10.3749 62.8369 10.2837 62.3457C8.27514 49.189 6.27136 36.0823 4.26281 22.9255C4.14298 22.1339 3.71328 21.3598 4.24247 20.3733Z" fill="white"/>
<path d="M4.24247 20.3733C5.11348 20.6406 5.19925 21.542 5.35314 22.2238C6.32004 26.3049 7.41771 30.3571 8.1231 34.4961C9.60129 43.0149 10.8616 51.5819 12.2478 60.0699C12.3581 60.7614 12.512 61.4432 12.7578 62.1557C13.4744 58.929 13.6536 55.6679 14.4185 52.4816C14.6412 52.4834 14.8203 52.4949 15.043 52.4967C15.139 53.0379 15.3269 53.6099 15.2922 54.1801C14.961 58.6509 14.5911 63.1815 14.1728 67.6716C14.0202 69.3417 13.1771 69.8352 11.9826 68.9748C11.0735 68.3069 10.2372 67.4694 9.48811 66.6126C7.8837 64.7181 6.31812 62.7638 4.75253 60.8095C3.73786 59.5002 3.71879 59.2999 3.6637 57.3178C6.59542 58.6628 7.84906 62.0157 10.3102 64.0273C10.2918 63.3666 10.3749 62.8369 10.2837 62.3457C8.27514 49.189 6.27136 36.0823 4.26281 22.9255C4.14298 22.1339 3.71328 21.3598 4.24247 20.3733Z" fill="url(#paint0_linear_9_4897)"/>
<path d="M45.0427 9.49564C46.009 10.0636 46.0035 11.1814 46.1013 12.0517C46.7388 17.2744 47.5294 22.4985 47.8609 27.7184C48.5734 38.469 49.0309 49.2173 49.6417 59.9049C49.6884 60.7748 49.7862 61.6452 49.9856 62.5786C51.1769 58.8634 51.7571 54.9563 52.9991 51.3036C53.2538 51.3681 53.4575 51.4321 53.7122 51.4966C53.7599 52.1802 53.9093 52.9268 53.8039 53.609C52.9107 58.9417 51.9663 64.3359 50.9711 69.6677C50.6043 71.6516 49.5824 72.0147 48.314 70.6366C47.3501 69.5719 46.4892 68.3218 45.7302 67.0727C44.1114 64.325 42.544 61.5158 40.9766 58.7065C39.9656 56.834 39.9668 56.5856 40.1317 54.1651C43.333 56.6169 44.3825 61.036 46.9685 64.1653C47.0235 63.3584 47.1795 62.7388 47.1316 62.1174C46.3453 45.5903 45.5587 29.1254 44.7725 12.5983C44.7263 11.6042 44.3235 10.5447 45.0427 9.49564Z" fill="white"/>
<path d="M45.0427 9.49564C46.009 10.0636 46.0035 11.1814 46.1013 12.0517C46.7388 17.2744 47.5294 22.4985 47.8609 27.7184C48.5734 38.469 49.0309 49.2173 49.6417 59.9049C49.6884 60.7748 49.7862 61.6452 49.9856 62.5786C51.1769 58.8634 51.7571 54.9563 52.9991 51.3036C53.2538 51.3681 53.4575 51.4321 53.7122 51.4966C53.7599 52.1802 53.9093 52.9268 53.8039 53.609C52.9107 58.9417 51.9663 64.3359 50.9711 69.6677C50.6043 71.6516 49.5824 72.0147 48.314 70.6366C47.3501 69.5719 46.4892 68.3218 45.7302 67.0727C44.1114 64.325 42.544 61.5158 40.9766 58.7065C39.9656 56.834 39.9668 56.5856 40.1317 54.1651C43.333 56.6169 44.3825 61.036 46.9685 64.1653C47.0235 63.3584 47.1795 62.7388 47.1316 62.1174C46.3453 45.5903 45.5587 29.1254 44.7725 12.5983C44.7263 11.6042 44.3235 10.5447 45.0427 9.49564Z" fill="url(#paint1_linear_9_4897)"/>
<path d="M77.2041 0.573726C78.1294 1.32079 78.0493 2.58159 78.0885 3.57451C78.3749 9.53814 78.8138 15.5202 78.7953 21.447C78.787 33.657 78.5245 45.8362 78.419 57.9639C78.4075 58.9507 78.4467 59.9436 78.5832 61.0188C80.019 56.9573 80.8585 52.612 82.3407 48.6267C82.5903 48.7274 82.7891 48.822 83.0387 48.9228C83.0405 49.6994 83.1395 50.5584 82.9889 51.3166C81.7421 57.2361 80.4401 63.2196 79.0916 69.1268C78.5935 71.3253 77.5505 71.6228 76.3783 69.9283C75.4886 68.6208 74.7139 67.1155 74.0408 65.6225C72.6109 62.3441 71.2362 59.0017 69.8615 55.6593C68.979 53.4351 68.9968 53.155 69.3229 50.4416C72.3502 53.5602 73.101 58.6624 75.4696 62.4778C75.5783 61.5733 75.7753 60.8913 75.769 60.1847C76.09 41.4482 76.4064 22.7818 76.7274 4.0453C76.7478 2.91843 76.4171 1.67854 77.2041 0.573726Z" fill="white"/>
<path d="M77.2041 0.573726C78.1294 1.32079 78.0493 2.58159 78.0885 3.57451C78.3749 9.53814 78.8138 15.5202 78.7953 21.447C78.787 33.657 78.5245 45.8362 78.419 57.9639C78.4075 58.9507 78.4467 59.9436 78.5832 61.0188C80.019 56.9573 80.8585 52.612 82.3407 48.6267C82.5903 48.7274 82.7891 48.822 83.0387 48.9228C83.0405 49.6994 83.1395 50.5584 82.9889 51.3166C81.7421 57.2361 80.4401 63.2196 79.0916 69.1268C78.5935 71.3253 77.5505 71.6228 76.3783 69.9283C75.4886 68.6208 74.7139 67.1155 74.0408 65.6225C72.6109 62.3441 71.2362 59.0017 69.8615 55.6593C68.979 53.4351 68.9968 53.155 69.3229 50.4416C72.3502 53.5602 73.101 58.6624 75.4696 62.4778C75.5783 61.5733 75.7753 60.8913 75.769 60.1847C76.09 41.4482 76.4064 22.7818 76.7274 4.0453C76.7478 2.91843 76.4171 1.67854 77.2041 0.573726Z" fill="url(#paint2_linear_9_4897)"/>
<path d="M111.909 3.61846C112.626 4.51248 112.435 5.68635 112.372 6.6317C112.038 12.32 111.832 18.0567 111.242 23.648C110.05 35.1728 108.645 46.6168 107.378 58.044C107.273 58.9732 107.21 59.9186 107.222 60.9615C108.841 57.4203 109.978 53.4894 111.63 50.0296C111.833 50.1756 111.993 50.3055 112.196 50.4515C112.122 51.185 112.124 52.0161 111.922 52.7012C110.284 58.035 108.592 63.4179 106.869 68.7194C106.231 70.6931 105.312 70.7612 104.477 68.9224C103.845 67.5066 103.33 65.9275 102.9 64.3808C101.999 60.9941 101.15 57.5584 100.302 54.1226C99.7644 51.8429 99.8068 51.582 100.348 49.0871C102.628 52.6487 102.774 57.6185 104.424 61.7035C104.605 60.8719 104.839 60.2682 104.902 59.5999C106.993 41.9777 109.074 24.4207 111.166 6.79845C111.292 5.73883 111.13 4.50086 111.909 3.61846Z" fill="white"/>
<path d="M111.909 3.61846C112.626 4.51248 112.435 5.68635 112.372 6.6317C112.038 12.32 111.832 18.0567 111.242 23.648C110.05 35.1728 108.645 46.6168 107.378 58.044C107.273 58.9732 107.21 59.9186 107.222 60.9615C108.841 57.4203 109.978 53.4894 111.63 50.0296C111.833 50.1756 111.993 50.3055 112.196 50.4515C112.122 51.185 112.124 52.0161 111.922 52.7012C110.284 58.035 108.592 63.4179 106.869 68.7194C106.231 70.6931 105.312 70.7612 104.477 68.9224C103.845 67.5066 103.33 65.9275 102.9 64.3808C101.999 60.9941 101.15 57.5584 100.302 54.1226C99.7644 51.8429 99.8068 51.582 100.348 49.0871C102.628 52.6487 102.774 57.6185 104.424 61.7035C104.605 60.8719 104.839 60.2682 104.902 59.5999C106.993 41.9777 109.074 24.4207 111.166 6.79845C111.292 5.73883 111.13 4.50086 111.909 3.61846Z" fill="url(#paint3_linear_9_4897)"/>
<path d="M144.701 20.3269C145.347 21.2428 145.107 22.0834 145 22.7894C144.402 27.0514 143.925 31.3916 143.085 35.497C141.378 43.9675 139.469 52.3075 137.695 60.6791C137.549 61.359 137.442 62.065 137.403 62.8698C139.133 60.6678 140.419 58.0126 142.176 55.8833C142.364 56.0605 142.512 56.2115 142.701 56.3886C142.594 56.9284 142.555 57.5671 142.327 58.0286C140.492 61.6014 138.603 65.1948 136.686 68.7154C135.976 70.0272 135.089 69.7857 134.374 68.1061C133.835 66.8166 133.416 65.4391 133.078 64.1138C132.375 61.2242 131.725 58.314 131.076 55.4039C130.67 53.4811 130.723 53.2943 131.366 51.5513C133.387 55.016 133.285 58.8795 134.675 62.5449C134.889 61.9639 135.144 61.5752 135.237 61.0821C138.106 48.2163 140.962 35.3973 143.831 22.5315C144.004 21.7582 143.909 20.7556 144.701 20.3269Z" fill="white"/>
<path d="M144.701 20.3269C145.347 21.2428 145.107 22.0834 145 22.7894C144.402 27.0514 143.925 31.3916 143.085 35.497C141.378 43.9675 139.469 52.3075 137.695 60.6791C137.549 61.359 137.442 62.065 137.403 62.8698C139.133 60.6678 140.419 58.0126 142.176 55.8833C142.364 56.0605 142.512 56.2115 142.701 56.3886C142.594 56.9284 142.555 57.5671 142.327 58.0286C140.492 61.6014 138.603 65.1948 136.686 68.7154C135.976 70.0272 135.089 69.7857 134.374 68.1061C133.835 66.8166 133.416 65.4391 133.078 64.1138C132.375 61.2242 131.725 58.314 131.076 55.4039C130.67 53.4811 130.723 53.2943 131.366 51.5513C133.387 55.016 133.285 58.8795 134.675 62.5449C134.889 61.9639 135.144 61.5752 135.237 61.0821C138.106 48.2163 140.962 35.3973 143.831 22.5315C144.004 21.7582 143.909 20.7556 144.701 20.3269Z" fill="url(#paint4_linear_9_4897)"/>
<defs>
<linearGradient id="paint0_linear_9_4897" x1="14.3186" y1="43.6343" x2="2.40532" y2="44.7679" gradientUnits="userSpaceOnUse">
<stop stop-color="#027D1D"/>
<stop offset="0.480769" stop-color="#31BA4F"/>
<stop offset="1" stop-color="#007B1B"/>
</linearGradient>
<linearGradient id="paint1_linear_9_4897" x1="53.9022" y1="40.5397" x2="40.1251" y2="40.4723" gradientUnits="userSpaceOnUse">
<stop stop-color="#027D1D"/>
<stop offset="0.480769" stop-color="#31BA4F"/>
<stop offset="1" stop-color="#007B1B"/>
</linearGradient>
<linearGradient id="paint2_linear_9_4897" x1="83.9604" y1="36.5792" x2="70.1862" y2="35.7034" gradientUnits="userSpaceOnUse">
<stop stop-color="#027D1D"/>
<stop offset="0.480769" stop-color="#31BA4F"/>
<stop offset="1" stop-color="#007B1B"/>
</linearGradient>
<linearGradient id="paint3_linear_9_4897" x1="114.18" y1="38.9869" x2="102.239" y2="37.0471" gradientUnits="userSpaceOnUse">
<stop stop-color="#027D1D"/>
<stop offset="0.480769" stop-color="#31BA4F"/>
<stop offset="1" stop-color="#007B1B"/>
</linearGradient>
<linearGradient id="paint4_linear_9_4897" x1="145.167" y1="48.2178" x2="133.228" y2="44.8011" gradientUnits="userSpaceOnUse">
<stop stop-color="#027D1D"/>
<stop offset="0.480769" stop-color="#31BA4F"/>
<stop offset="1" stop-color="#007B1B"/>
</linearGradient>
</defs>
</svg>
