<svg width="24" height="24" viewBox="0 0 24 24" fill="none" xmlns="http://www.w3.org/2000/svg">
<path fill-rule="evenodd" clip-rule="evenodd" d="M10.7279 0H10.7692H13.2308H13.2721C14.9604 0 16.2839 -1.2251e-05 17.3478 0.0869047C18.431 0.175409 19.3259 0.358621 20.1359 0.771335C21.4676 1.44982 22.5502 2.53246 23.2287 3.86406C23.6414 4.67407 23.8246 5.56898 23.9131 6.65223C24 7.71601 24 9.03958 24 10.7278V10.7279V10.7692V13.2308V13.2721V13.2722C24 14.9604 24 16.2839 23.9131 17.3478C23.8246 18.431 23.6414 19.3259 23.2287 20.1359C22.5502 21.4676 21.4676 22.5502 20.1359 23.2287C19.3259 23.6414 18.431 23.8246 17.3478 23.9131C16.2839 24 14.9604 24 13.2722 24H13.2721H13.2308H10.7692H10.7279H10.7278C9.03958 24 7.71601 24 6.65223 23.9131C5.56898 23.8246 4.67407 23.6414 3.86406 23.2287C2.53246 22.5502 1.44982 21.4676 0.771335 20.1359C0.358621 19.3259 0.175409 18.431 0.0869047 17.3478C-1.2251e-05 16.2839 0 14.9604 0 13.2721V13.2308V10.7692V10.7279C0 9.03966 -1.2251e-05 7.71605 0.0869047 6.65223C0.175409 5.56898 0.358621 4.67407 0.771335 3.86406C1.44982 2.53246 2.53246 1.44982 3.86406 0.771335C4.67407 0.358621 5.56898 0.175409 6.65223 0.0869047C7.71605 -1.2251e-05 9.03966 0 10.7279 0ZM12.6873 14.4657L13.6304 6.4489C13.7452 5.47292 12.9826 4.61538 11.9999 4.61538C11.0172 4.61538 10.2546 5.47292 10.3695 6.4489L11.3126 14.4657C11.3536 14.8143 11.649 15.0769 11.9999 15.0769C12.3509 15.0769 12.6463 14.8143 12.6873 14.4657ZM13.2306 18.1538C13.2306 18.8336 12.6796 19.3846 11.9999 19.3846C11.3202 19.3846 10.7691 18.8336 10.7691 18.1538C10.7691 17.4741 11.3202 16.9231 11.9999 16.9231C12.6796 16.9231 13.2306 17.4741 13.2306 18.1538Z" fill="#AE2A2A"/>
</svg>
